<svg width="1200" height="630" viewBox="0 0 1200 630" fill="none" xmlns="http://www.w3.org/2000/svg">
  <rect width="1200" height="630" fill="#0D0D0D"/>
  <radialGradient id="glow" cx="0" cy="0" r="1" gradientUnits="userSpaceOnUse" gradientTransform="translate(910 124) rotate(136) scale(520 430)">
    <stop stop-color="#B5FF2E" stop-opacity="0.28"/>
    <stop offset="1" stop-color="#B5FF2E" stop-opacity="0"/>
  </radialGradient>
  <rect width="1200" height="630" fill="url(#glow)"/>
  <rect x="72" y="70" width="1056" height="490" rx="48" fill="#161616" stroke="#2D2D2D" stroke-width="2"/>
  <g transform="translate(96 96)">
    <rect x="0" y="42" width="42" height="112" rx="14" fill="#B5FF2E"/>
    <rect x="42" y="77" width="78" height="42" rx="12" fill="#B5FF2E"/>
    <rect x="220" y="77" width="78" height="42" rx="12" fill="#B5FF2E"/>
    <rect x="298" y="42" width="42" height="112" rx="14" fill="#B5FF2E"/>
    <path d="M199 0L127 140h54l-27 112 94-151h-54l34-101z" fill="#B5FF2E"/>
  </g>
  <text x="96" y="376" fill="#F5F5F5" font-family="Inter, Pretendard, Apple SD Gothic Neo, sans-serif" font-size="78" font-weight="800" letter-spacing="-2">운동 기록 · 커뮤니티 · 스코어</text>
  <text x="100" y="444" fill="#A1A1AA" font-family="Inter, Pretendard, Apple SD Gothic Neo, sans-serif" font-size="34" font-weight="600">15초 운동 기록을 공유하고 꾸준함을 이어가세요</text>
  <text x="100" y="510" fill="#B5FF2E" font-family="Inter, Pretendard, Apple SD Gothic Neo, sans-serif" font-size="38" font-weight="800">Stack Health</text>
  <circle cx="1010" cy="438" r="72" fill="#B5FF2E" fill-opacity="0.12"/>
  <path d="M1019 382L979 459h30l-15 62 53-84h-31l21-55h-18z" fill="#B5FF2E"/>
</svg>
